<?xml version="1.0" ?><svg height="30px" width="30px" style="enable-background:new 0 0 64 64;" version="1.1" viewBox="0 0 64 64" xml:space="preserve" xmlns="http://www.w3.org/2000/svg" xmlns:xlink="http://www.w3.org/1999/xlink"><style type="text/css">
	.st0{fill:#231F20;}
</style><g id="FB"/><g id="ig"/><g id="yt"/><g id="twitter"/><g id="snapchat"/><g id="WA"/><g id="Pinterrest"/><g id="linkedin"><g><g><path d="M58,63H6c-2.8,0-5-2.2-5-5V6c0-2.8,2.2-5,5-5h52c2.8,0,5,2.2,5,5v52C63,60.8,60.8,63,58,63z M6,3C4.3,3,3,4.3,3,6v52     c0,1.7,1.3,3,3,3h52c1.7,0,3-1.3,3-3V6c0-1.7-1.3-3-3-3H6z M52,53h-7.1c-0.6,0-1-0.4-1-1V38.2c0-3.7-0.2-4.9-0.4-5.3     c-0.2-0.7-0.6-1.2-1.1-1.5c-0.5-0.4-1.1-0.5-1.8-0.5c-1,0-1.9,0.3-2.6,0.8c-0.8,0.6-1.3,1.3-1.6,2.2c-0.2,0.7-0.5,2.3-0.5,5.9V52     c0,0.6-0.4,1-1,1h-8.6c-0.6,0-1-0.4-1-1V24.4c0-0.6,0.4-1,1-1h7.1c0.6,0,1,0.4,1,1v1.5c2.3-2.1,5-3.1,8.2-3.1     c1.8,0,3.4,0.3,4.9,1c1.5,0.6,2.7,1.5,3.5,2.5c0.8,1,1.3,2.2,1.6,3.4c0.3,1.2,0.4,2.9,0.4,5.1V52C53,52.6,52.6,53,52,53z      M45.9,51H51V34.9c0-2-0.1-3.6-0.4-4.7c-0.2-1-0.7-1.9-1.3-2.7c-0.6-0.8-1.5-1.4-2.7-1.9c-1.2-0.5-2.6-0.8-4.1-0.8     c-3.4,0-6.2,1.4-8.4,4.3c-0.3,0.3-0.7,0.5-1.1,0.3c-0.4-0.1-0.7-0.5-0.7-0.9v-3.1h-5.1V51h6.6V39.8c0-3.2,0.2-5.3,0.6-6.5     c0.4-1.3,1.2-2.4,2.3-3.2c1.1-0.8,2.4-1.2,3.8-1.2c1.1,0,2.1,0.3,3,0.9c0.8,0.6,1.4,1.4,1.8,2.5c0.2,0.6,0.5,1.9,0.5,6V51z      M19.1,53H12c-0.6,0-1-0.4-1-1V24.4c0-0.6,0.4-1,1-1h7.1c0.6,0,1,0.4,1,1V52C20.1,52.6,19.7,53,19.1,53z M13,51h5.1V25.4H13V51z      M15.6,19.9c-2.5,0-4.6-2-4.6-4.4s2.1-4.4,4.6-4.4s4.6,2,4.6,4.4S18.1,19.9,15.6,19.9z M15.6,13c-1.4,0-2.6,1.1-2.6,2.4     s1.2,2.4,2.6,2.4s2.6-1.1,2.6-2.4S17,13,15.6,13z"/></g></g></g><g id="Messenger"/><g id="Tiktok"/><g id="VK"/><g id="Thumblr"/><g id="OK.ru"/><g id="Weibo"/></svg>
