<?xml version="1.0" standalone="no"?>
<!DOCTYPE svg PUBLIC "-//W3C//DTD SVG 20010904//EN"
 "http://www.w3.org/TR/2001/REC-SVG-20010904/DTD/svg10.dtd">
<svg version="1.0" xmlns="http://www.w3.org/2000/svg"
 width="850.000000pt" height="826.000000pt" viewBox="0 0 850.000000 826.000000"
 preserveAspectRatio="xMidYMid meet">

<g transform="translate(0.000000,826.000000) scale(0.100000,-0.100000)"
fill="#000000" stroke="none">
<path d="M1693 7024 c-57 -21 -123 -81 -158 -145 l-30 -54 -3 -2465 c-2 -2744
-8 -2522 67 -2618 27 -34 59 -59 98 -78 l58 -29 2455 -3 c1759 -2 2468 0 2500
8 62 16 135 65 170 114 65 95 60 -100 58 2606 l-3 2455 -28 57 c-30 61 -74
105 -140 140 l-42 23 -2480 2 c-2170 1 -2485 0 -2522 -13z m2172 -970 c512
-79 1206 -186 1543 -239 338 -52 627 -95 643 -95 18 0 29 -5 29 -14 0 -30
-499 -3228 -504 -3234 -4 -3 -70 4 -149 16 -362 55 -3055 473 -3076 478 -18 4
-22 9 -16 27 6 22 212 1339 400 2557 52 338 97 625 100 638 5 21 9 23 53 17
26 -4 466 -72 977 -151z"/>
<path d="M3935 4700 c-4 -6 -28 -149 -55 -318 -36 -230 -45 -310 -36 -319 6
-6 150 -33 319 -59 264 -40 310 -45 321 -33 12 13 113 636 105 643 -5 4 -610
96 -631 96 -9 0 -20 -5 -23 -10z"/>
</g>
</svg>
